<?xml version="1.0" encoding="utf-8"?>
<!-- Generator: Adobe Illustrator 22.0.1, SVG Export Plug-In . SVG Version: 6.00 Build 0)  -->
<svg version="1.1" id="Layer_1" xmlns="http://www.w3.org/2000/svg" xmlns:xlink="http://www.w3.org/1999/xlink" x="0px" y="0px"
	 viewBox="0 0 201.99051 59.48042" enable-background="new 0 0 201.99051 59.48042" xml:space="preserve">
<path fill="#FDC305" d="M59.88403,23.99484C54.43221,10.94526,39.43385,4.78606,26.38426,10.23788
	S7.17547,30.68807,12.6273,43.73766c3.58626,8.58414,11.30349,14.18642,19.87951,15.46375
	c-0.5795-2.09018-1.16238-4.40036-1.69176-6.85542c1.49913,0.99198,3.0887,1.80529,4.76932,2.55531
	c-0.00686,0.0034-0.01347,0.00676-0.02033,0.01016c0,0,0.11849,2.15631,0.27907,4.56544
	c1.77346,0.02949,3.56499-0.12625,5.34727-0.47814c-0.04223-0.15771-0.0431-0.405,0.01186-0.76221
	c0.28643-1.86176,1.09262-5.23601,1.24828-7.40726c1.12886-1.06386,2.13786-2.32539,2.90022-3.71268
	c-0.00142,0.01194-0.00275,0.02444-0.00418,0.03629c-0.01741,0.14397-0.03558,0.28843-0.05439,0.4332
	c-0.55432,4.26472-1.70417,8.81376-2.40329,10.07217c-0.243,0.4374-0.54588,0.85826-0.82996,1.15313
	c1.36829-0.32005,2.72851-0.75712,4.06816-1.3168C59.17667,52.04279,65.33586,37.04443,59.88403,23.99484z M58.40597,27.78064
	c-0.43371,0.43371-1.34932,0.72285-1.49389-0.57828s-0.19276-2.21672-0.19276-2.21672s-1.92759-3.42148-2.65043-3.46966
	c-0.72285-0.04819-5.83096,3.46966-7.18027,4.96354c-1.16463,1.2894-1.3975,1.20474-1.3975,3.46966
	c0,1.71298,0.22041,8.16665,0.09856,13.10766v0v0c0,0-2.17083,0.57825-8.14625,2.16848
	c-5.97553,1.59026-7.80674,1.78302-7.80674,1.78302l-1.01199-5.83096c0,0-0.00085-0.00016-0.00239-0.00044
	c-0.0051-0.00093-0.01861-0.00333-0.03975-0.00657c-0.00062-0.0001-0.00154-0.00023-0.00217-0.00032
	c-0.01004-0.00153-0.02152-0.00322-0.0348-0.00505c-0.01448-0.002-0.03074-0.00412-0.04906-0.00635
	c-0.00006-0.00001-0.00011-0.00002-0.00011-0.00002L25.92608,27.9734c0,0-3.80699-1.44569-5.20449-1.83121
	c-1.3975-0.38552-2.26492-0.67466-4.04794,0.62646c-1.78302,1.30112-1.73483,3.85518-1.73483,3.85518
	s0.43371,0.96379,0.4819,1.44569c0.04819,0.4819-1.20475,0.43371-2.02397,0.43371s-0.91561-1.44569-0.28914-3.13234
	c0.62647-1.68664,1.92759-3.71061,1.92759-3.71061s1.20474-2.26492,2.07216-2.89138c0,0,0.14457-0.33733,1.25294-0.24095
	c1.10836,0.09638,7.27665,0.43371,7.27665,0.43371l0.05337-2.27477c6.69253-0.9123,13.48967-1.37413,20.2444-1.33596
	c-0.0104,0.60765-0.02917,1.21774-0.05807,1.82771c0,0,4.38527-2.02397,8.14407-1.97578c0,0,0.43371-0.04819,0.77104,0.38552
	c0.33733,0.43371,2.40948,2.98776,2.65043,3.37328c0.24095,0.38552,1.20475,1.73483,1.83121,3.03595
	C59.27339,25.99762,58.83968,27.34693,58.40597,27.78064z"/>
<path fill="#F06351" d="M56.45518,21.6732c0.47402,0.59812,0.88731,1.12897,0.98699,1.28846
	c0.24095,0.38552,1.20475,1.73483,1.83121,3.03595c0,0-0.43371,1.34931-0.86742,1.78302s-1.34932,0.72285-1.49389-0.57828
	s-0.19276-2.21672-0.19276-2.21672s-1.92759-3.42148-2.65043-3.46966c-0.72285-0.04819-5.83096,3.46966-7.18027,4.96354
	c-1.16463,1.2894-1.3975,1.20474-1.3975,3.46966c0,1.50215,0.16947,6.64978,0.12903,11.22611
	c1.80933,0.20878,4.46638,0.70966,5.26822,1.88155c0,0-0.28914-7.18033,7.80674-3.42153c0,0,0.28914-9.78252,11.46916-7.27665
	C70.16427,32.35867,64.49624,25.39996,56.45518,21.6732z"/>
<path fill="#F06351" d="M45.9347,19.35094c0.14571-8.51376-1.40738-16.53259-1.40738-16.53259s-0.14457-1.30112-0.86742-0.24095
	c-0.72285,1.06017-1.20474,3.95156-1.20474,3.95156c-7.46941-0.43371-12.81847,0.33733-12.81847,0.33733
	c-0.81923-2.74682-2.21673-3.95156-2.89139-3.66242c-0.67466,0.28914-0.72285,3.32509-0.72285,3.32509L25.69031,20.6869
	C32.38284,19.7746,39.17998,19.31277,45.9347,19.35094z"/>
<path fill="#E55645" d="M45.35073,47.11663c0.12655-1.06481,0.20013-2.4854,0.23895-4.05978c0,0-2.17083,0.57825-8.14625,2.16848
	c-5.97553,1.59026-7.80674,1.78302-7.80674,1.78302l1.10836,5.01173c0.02318,0.10904,0.0466,0.21744,0.06999,0.32591
	c1.49913,0.99198,3.0887,1.80529,4.76932,2.55531c4.37252-2.16454,6.8708-4.13416,6.8708-4.13416
	c-0.00136,0.02036-0.00318,0.04158-0.00466,0.06216C43.57937,49.76545,44.58836,48.50391,45.35073,47.11663z"/>
<path d="M31.99799,16.2151c-0.04572-0.09143,1.0262,0.68341,1.41172,0.92436c0.38552,0.24095,0.61225,0.42495,0.61225,0.59362
	c0,0.16866-0.26504,0.33733-0.62646,0.33733s-0.91561-0.12048-0.96379-0.26505c0,0,0.60237-0.02409,0.9397-0.02409h0.28913
	C33.66053,17.78127,32.26303,16.74519,31.99799,16.2151z"/>
<path d="M39.50053,16.3288c0,0-1.05128,1.27938-1.09043,1.33809c-0.03914,0.05871-0.16636,0.34249,0.18592,0.29357
	c0.35228-0.04893,1.11555-0.22507,1.22319-0.28378c0.10764-0.05871,0.0697-0.19644-0.11743-0.17614
	c-0.20537,0.02228-0.68499,0.04893-0.98833,0.10764l0.84433-1.26579C39.55779,16.34239,39.58427,16.22349,39.50053,16.3288z"/>
<path d="M36.35615,22.44362c0,0,0.8132-0.35239,1.09331-1.01198c0.2801-0.6596,0.03614-0.91567-0.44275-0.9819
	s-1.3463-0.03008-1.74387,0.34037c-0.39756,0.37046-0.34335,0.73188-0.05421,0.95777
	C35.49777,21.97377,36.05798,22.35327,36.35615,22.44362z"/>
<path fill="#F06351" d="M35.94955,23.69957c0,0-0.18027,0.37337-0.46024,0.59635c-0.24414,0.19445-0.56916,0.3651-1.02163,0.38827
	c-0.64051,0.0328-1.05962-0.16995-1.45718-0.44704c-0.20369-0.14197-0.39678-0.25555-0.53466-0.44353
	c-0.15765-0.18263-0.35737-0.25368-0.35737-0.25368s0.75051,4.115,2.5757,4.76556c1.82519,0.65056,2.15204-0.75227,2.20918-1.13744
	c0.04853-0.32712,0-2.09025-0.82341-3.2361C36.06527,23.62743,36.04913,23.83144,35.94955,23.69957z"/>
<g>
	<path d="M34.30225,24.8371c-0.00526,0-0.01055-0.00003-0.01585-0.00007c-1.29788-0.01098-2.30012-1.36621-2.34212-1.42388
		c-0.04701-0.06448-0.03283-0.15484,0.03166-0.20189c0.06441-0.04708,0.1548-0.03293,0.20196,0.03156
		c0.00946,0.01295,0.96014,1.29608,2.11196,1.30507c0.00399,0.00004,0.00808,0.00007,0.01207,0.00007
		c0.58661,0,1.13626-0.33428,1.63413-0.99381l0.14288-0.18929l0.10278,0.21375c0.0036,0.00738,0.37452,0.75849,0.99243,0.79714
		c0.4983,0.03134,1.0566-0.41271,1.62217-1.28312c0.04341-0.06688,0.13292-0.08601,0.19998-0.04246
		c0.06692,0.04352,0.08598,0.13306,0.04242,0.20002c-0.63524,0.97771-1.26978,1.45303-1.88427,1.41403
		c-0.56529-0.03621-0.94559-0.49671-1.12161-0.76703C35.51122,24.52117,34.9299,24.8371,34.30225,24.8371z"/>
</g>
<circle fill="#FDC305" cx="36.25567" cy="34.54736" r="3.75002"/>
<path fill="#111111" d="M41.23297,31.50384l-3.13332,1.30903l1.1497-5.63586l-7.5012,9.76239l3.13332-1.30903l-1.1497,5.63586
	L41.23297,31.50384z M33.84493,35.3269l4.13121-5.40846l-0.80664,4.01953l1.96669-0.82164l-4.13121,5.40846l0.80664-4.01953
	L33.84493,35.3269z"/>
<circle fill="#111111" cx="32.43692" cy="32.74256" r="1.1234"/>
<circle fill="#111111" cx="38.95845" cy="37.1348" r="0.79436"/>
<circle fill="#111111" cx="39.92199" cy="35.39851" r="0.34758"/>
<path fill="#F06351" d="M45.87664,21.15995c0,0-2.55406,2.25377-5.08402,5.21185s-5.31292,4.89491-5.31292,4.89491
	c-0.21685-0.52823-1.6264-1.51425-1.6264-1.51425s-3.14438-2.14813-5.20449-3.83846c-1.1841-0.97157-2.35544-2.17505-3.1382-3.02352
	c-0.29316-0.0157-1.0697-0.05743-2.01396-0.10935c4.71079,6.99767,12.0192,8.83773,12.0192,8.83773
	c0.86741-0.14086,3.28895-1.86641,5.09607-3.27501c1.80711-1.40861,4.77078-4.54276,5.96348-5.91616
	c0.60339-0.69481,0.94751-1.42535,1.14052-1.97795C46.60217,20.83368,45.87664,21.15995,45.87664,21.15995z"/>
<polygon fill="#FDC305" points="65.21797,3.49828 56.76331,12.94222 55.54428,10.94468 63.69286,0 "/>
<polygon fill="#FDC305" points="62.64553,17.25806 68.19541,13.14648 67.4069,9.41256 62.00512,14.22544 "/>
<polygon fill="#FDC305" points="59.92401,49.36631 66.05253,52.5518 69.06278,50.2061 62.36887,47.46117 "/>
<polygon fill="#FDC305" points="1.95347,5.97522 5.01766,2.61415 14.31236,11.61314 13.08669,13.88999 "/>
<polygon fill="#FDC305" points="7.38176,16.28314 2.67983,13.15447 0.27501,17.01489 5.43012,19.41608 "/>
<polygon fill="#FDC305" points="13.90729,52.5518 9.35951,55.90059 12.165,59.48042 16.1841,55.45703 "/>
<path fill="#F06351" d="M25.92608,27.9734c0,0-3.80699-1.44569-5.20449-1.83121c-1.3975-0.38552-2.26492-0.67466-4.04794,0.62646
	c-1.78302,1.30112-1.73483,3.85518-1.73483,3.85518s0.43371,0.96379,0.4819,1.44569c0.04819,0.4819-1.20475,0.43371-2.02397,0.43371
	s-0.91561-1.44569-0.28914-3.13234c0.62647-1.68664,1.92759-3.71061,1.92759-3.71061C9.58976,28.50348,0,35.05729,0,35.05729
	s2.93958-0.28914,8.19226,0.24095c5.25268,0.53009,4.96355,4.67441,4.96355,4.67441s3.51785-0.96379,5.6382-1.10836
	c2.12035-0.14457,2.26492,2.12035,2.26492,2.12035l0.53008,3.85518c0,0,0.4819-0.62646,2.65044-2.36129
	c1.86164-1.48931,3.88557-1.36176,4.38527-1.30112l0,0L25.92608,27.9734z"/>
<g>
	<path fill="#111111" d="M85.65682,42.03469c-0.93165-1.19922-1.39788-2.92873-1.39788-5.19015v-7.50671
		c0-2.3125,0.46217-4.05985,1.3849-5.24205c0.92355-1.1822,2.5071-1.7733,4.75069-1.7733c2.13979,0,3.65362,0.52218,4.54311,1.56572
		c0.88867,1.04435,1.33301,2.54197,1.33301,4.49202v1.75951h-4.14174v-1.94114c0-0.6211-0.03082-1.12138-0.09082-1.50167
		c-0.06081-0.37947-0.21568-0.69407-0.46622-0.94462c-0.24974-0.24974-0.63407-0.37542-1.15139-0.37542
		c-0.77678,0-1.27787,0.25055-1.50166,0.75083c-0.2246,0.50109-0.33649,1.23409-0.33649,2.20061v9.52569
		c0,0.98435,0.12973,1.71735,0.38839,2.2006c0.25865,0.48326,0.74191,0.72489,1.44977,0.72489
		c0.72489,0,1.19031-0.24569,1.39788-0.73786c0.20676-0.49218,0.31055-1.22031,0.31055-2.18763V35.8091h4.14174v1.73438
		c0,2.00195-0.44028,3.55146-1.32004,4.64689c-0.88057,1.09625-2.39926,1.64356-4.55608,1.64356
		C88.16798,43.83393,86.58928,43.23472,85.65682,42.03469z"/>
	<path fill="#111111" d="M101.91405,22.58114h4.7369l4.03876,20.96818h-3.93498l-0.77678-4.60798h-3.31307l-0.80273,4.60798
		h-4.01282L101.91405,22.58114z M105.56362,36.30128l-1.26814-8.43917l-1.2422,8.43917H105.56362z"/>
	<path fill="#111111" d="M113.71819,25.73935h-3.23604v-3.1582h10.7168v3.1582h-3.18414v17.80998h-4.29662V25.73935z"/>
	<path fill="#444444" d="M129.61217,22.58114h8.12781v2.17466h-5.20393v6.9375h4.21957v2.07087h-4.21957v7.68834h5.25583v2.09682
		h-8.1797V22.58114z"/>
	<path fill="#444444" d="M140.14815,22.58114h1.99304l5.95314,13.9269v-13.9269h2.43413v20.96818h-1.86491l-6.03099-14.31529
		v14.31529h-2.48441V22.58114z"/>
	<path fill="#444444" d="M153.81558,22.58114h8.12781v2.17466h-5.20393v6.9375h4.21957v2.07087h-4.21957v7.68834h5.25583v2.09682
		h-8.1797V22.58114z"/>
	<path fill="#444444" d="M164.35156,22.58114h4.21959c2.12276,0,3.67957,0.43623,4.67203,1.30707
		c0.99246,0.87165,1.48869,2.29142,1.48869,4.2585c0,2.69197-0.86273,4.32337-2.58981,4.89257l2.97739,10.51004h-2.8217
		l-2.74387-9.83705h-2.27844v9.83705h-2.92387V22.58114z M168.38953,31.61546c1.26003,0,2.16168-0.24974,2.70494-0.75083
		c0.54326-0.50028,0.8157-1.40599,0.8157-2.71792c0-0.86273-0.09569-1.53978-0.28542-2.03195
		c-0.18974-0.49218-0.52705-0.85462-1.00868-1.08733c-0.48326-0.23271-1.16599-0.34947-2.04492-0.34947h-1.29572v6.9375H168.38953z"
		/>
	<path fill="#444444" d="M178.66605,42.00874c-0.84489-1.19923-1.26816-2.98063-1.26816-5.34502v-7.01534
		c0-1.62167,0.16866-2.95549,0.50435-3.99985c0.33731-1.04354,0.91461-1.84627,1.73518-2.40737
		c0.81894-0.56029,1.946-0.84084,3.37793-0.84084c1.93303,0,3.32605,0.49137,4.18066,1.47491
		c0.85463,0.98435,1.28113,2.52899,1.28113,4.63392v0.77678h-2.74387v-0.64705c0-1.00057-0.06-1.77329-0.18001-2.31737
		c-0.12163-0.54326-0.37622-0.95273-0.76381-1.22923c-0.38919-0.27568-0.96327-0.41434-1.72221-0.41434
		c-0.81084,0-1.41571,0.18568-1.8114,0.55704c-0.39731,0.37055-0.65192,0.86678-0.76381,1.48788
		c-0.11351,0.6211-0.16866,1.44977-0.16866,2.48521v7.76617c0,1.60464,0.19461,2.75684,0.58218,3.45578
		c0.38921,0.69894,1.13518,1.04841,2.23953,1.04841c1.08652,0,1.83411-0.37947,2.23952-1.13922
		c0.40543-0.75894,0.60812-1.97601,0.60812-3.64957v-1.44977h-2.66602v-2.07087h5.30609v10.38031h-1.83734l-0.28542-2.40737
		c-0.65515,1.77735-1.89897,2.66602-3.72823,2.66602C180.88448,43.80798,179.51256,43.20878,178.66605,42.00874z"/>
	<path fill="#444444" d="M194.68976,36.1456l-4.52933-13.56445h2.71791l3.20929,10.12165l3.15901-10.12165h2.74387l-4.505,13.56445
		v7.40373h-2.79575V36.1456z"/>
</g>
</svg>
