<?xml version="1.0" encoding="utf-8"?>
<!-- Generator: Adobe Illustrator 22.0.1, SVG Export Plug-In . SVG Version: 6.00 Build 0)  -->
<svg version="1.1" id="Layer_2" xmlns="http://www.w3.org/2000/svg" xmlns:xlink="http://www.w3.org/1999/xlink" x="0px" y="0px"
	 viewBox="0 0 172.26414 57.07033" enable-background="new 0 0 172.26414 57.07033" xml:space="preserve">
<path fill="#FDC305" d="M59.62429,21.73866C54.19611,8.74568,39.26281,2.61319,26.26982,8.04137S7.14435,28.40286,12.57253,41.39585
	c3.57071,8.54691,11.25446,14.12489,19.79329,15.39668c-0.57698-2.08112-1.15734-4.38128-1.68442-6.82568
	c1.49263,0.98767,3.0753,1.79746,4.74863,2.54423c-0.00683,0.00338-0.0134,0.00674-0.02024,0.01012
	c0,0,0.11798,2.14696,0.27786,4.54564c1.76577,0.02936,3.54952-0.12571,5.32408-0.47606
	c-0.04205-0.15703-0.04291-0.40324,0.0118-0.75891c0.28518-1.85368,1.08788-5.2133,1.24286-7.37513
	c1.12397-1.05925,2.12858-2.31531,2.88765-3.69658c-0.00142,0.01188-0.00274,0.02433-0.00417,0.03613
	c-0.01733,0.14335-0.03542,0.28718-0.05416,0.43132c-0.55192,4.24622-1.69678,8.77553-2.39286,10.02848
	c-0.24194,0.4355-0.54351,0.85453-0.82636,1.14814c1.36236-0.31866,2.71667-0.75383,4.05052-1.31109
	C58.91999,49.66496,65.05247,34.73165,59.62429,21.73866z M58.15264,25.50804c-0.43182,0.43183-1.34346,0.71971-1.4874-0.57577
	c-0.14394-1.29548-0.19192-2.20711-0.19192-2.20711s-1.91923-3.40664-2.63894-3.45461
	c-0.71971-0.04798-5.80567,3.45461-7.14913,4.94201c-1.15958,1.28381-1.39144,1.19952-1.39144,3.45461
	c0,1.70555,0.21945,8.13123,0.09814,13.0508v0v0.00001c0,0-2.16142,0.57574-8.11092,2.15908
	c-5.94961,1.58337-7.77288,1.77529-7.77288,1.77529l-1.0076-5.80567c0,0-0.00085-0.00016-0.00238-0.00044
	c-0.00508-0.00093-0.01853-0.00331-0.03958-0.00655c0,0-0.00153-0.00022-0.00216-0.00032
	c-0.01-0.00152-0.02143-0.0032-0.03465-0.00503c-0.01442-0.00199-0.03061-0.00411-0.04885-0.00632l-0.00017-0.00002
	l-2.55914-13.12805c0,0-3.79047-1.43942-5.18192-1.82327c-1.39144-0.38385-2.25509-0.67173-4.03038,0.62375
	c-1.77528,1.29548-1.72731,3.83846-1.72731,3.83846s0.43183,0.95961,0.47981,1.43942
	c0.04798,0.4798-1.19952,0.43183-2.01519,0.43183s-0.91164-1.43942-0.28788-3.11875
	c0.62375-1.67933,1.91923-3.69452,1.91923-3.69452s1.19952-2.25509,2.06317-2.87884c0,0,0.14394-0.33587,1.2475-0.2399
	c1.10356,0.09596,7.24509,0.43183,7.24509,0.43183l0.05313-2.2649c6.6635-0.90834,13.43116-1.36818,20.15659-1.33017
	c-0.01036,0.60502-0.02905,1.21246-0.05782,1.81978c0,0,4.36625-2.01519,8.10875-1.96721c0,0,0.43182-0.04798,0.76769,0.38384
	c0.33586,0.43183,2.39904,2.9748,2.63894,3.35865c0.23991,0.38384,1.19952,1.72731,1.82327,3.02279
	C59.0163,23.73275,58.58447,25.07621,58.15264,25.50804z"/>
<path fill="#F06351" d="M56.21032,19.42709c0.47196,0.59552,0.88346,1.12407,0.9827,1.28287
	c0.23991,0.38384,1.19952,1.72731,1.82327,3.02279c0,0-0.43183,1.34346-0.86366,1.77528
	c-0.43182,0.43183-1.34346,0.71971-1.4874-0.57577c-0.14394-1.29548-0.19192-2.20711-0.19192-2.20711
	s-1.91923-3.40664-2.63894-3.45461c-0.71971-0.04798-5.80567,3.45461-7.14913,4.94201
	c-1.15958,1.28381-1.39144,1.19952-1.39144,3.45461c0,1.49564,0.16873,6.62094,0.12847,11.17742
	c1.80148,0.20787,4.44701,0.70658,5.24537,1.87339c0,0-0.28788-7.14919,7.77288-3.40669c0,0,0.28788-9.74009,11.41941-7.24509
	C69.85994,30.06621,64.21649,23.13769,56.21032,19.42709z"/>
<path fill="#F06351" d="M45.73547,17.1149c0.14508-8.47683-1.40128-16.46088-1.40128-16.46088s-0.14394-1.29548-0.86366-0.2399
	c-0.71971,1.05557-1.19952,3.93442-1.19952,3.93442C34.83401,3.91671,29.50815,4.6844,29.50815,4.6844
	c-0.81568-2.7349-2.20712-3.93442-2.87884-3.64654c-0.67173,0.28788-0.71971,3.31067-0.71971,3.31067l-0.33071,14.09653
	C32.24238,17.53673,39.01004,17.07689,45.73547,17.1149z"/>
<path fill="#E55645" d="M45.15403,44.76016c0.126-1.06019,0.19926-2.47463,0.23792-4.04218c0,0-2.16142,0.57574-8.11092,2.15908
	c-5.94961,1.58337-7.77288,1.77529-7.77288,1.77529l1.10356,4.99c0.02308,0.10856,0.0464,0.21649,0.06969,0.3245
	c1.49263,0.98767,3.0753,1.79746,4.74863,2.54423c4.35355-2.15515,6.841-4.11623,6.841-4.11623
	c-0.00135,0.02027-0.00317,0.0414-0.00463,0.06189C43.39035,47.39749,44.39497,46.14143,45.15403,44.76016z"/>
<path d="M31.8592,13.99266c-0.04552-0.09104,1.02175,0.68045,1.40559,0.92035s0.6096,0.42311,0.6096,0.59104
	s-0.26389,0.33587-0.62375,0.33587s-0.91164-0.11995-0.95962-0.26389c0,0,0.59976-0.02399,0.93563-0.02399h0.28788
	C33.51454,15.55204,32.1231,14.52045,31.8592,13.99266z"/>
<path d="M39.3292,14.10587c0,0-1.04673,1.27383-1.0857,1.33229s-0.16563,0.34101,0.18512,0.29229s1.11071-0.22409,1.21788-0.28255
	s0.0694-0.19559-0.11692-0.17538c-0.20448,0.02218-0.68202,0.04872-0.98405,0.10717l0.84067-1.2603
	C39.38621,14.1194,39.41258,14.00102,39.3292,14.10587z"/>
<path d="M36.19846,20.19417c0,0,0.80967-0.35086,1.08856-1.0076s0.03599-0.9117-0.44082-0.97764
	c-0.47681-0.06594-1.34046-0.02995-1.7363,0.3389c-0.39584,0.36885-0.34187,0.72871-0.05398,0.95362
	C35.3438,19.72636,35.90158,20.10421,36.19846,20.19417z"/>
<path fill="#F06351" d="M35.79362,21.44467c0,0-0.17949,0.37175-0.45824,0.59376c-0.24308,0.1936-0.56669,0.36351-1.01719,0.38658
	c-0.63773,0.03266-1.05503-0.16921-1.45087-0.4451c-0.20281-0.14135-0.39505-0.25444-0.53234-0.4416
	c-0.15696-0.18183-0.35583-0.25257-0.35583-0.25257s0.74726,4.09715,2.56452,4.74489c1.81727,0.64774,2.14271-0.749,2.1996-1.13251
	c0.04832-0.3257,0-2.08118-0.81985-3.22206C35.90884,21.37284,35.89278,21.57596,35.79362,21.44467z"/>
<g>
	<path d="M34.15347,22.57726c-0.00524,0-0.01051-0.00004-0.01578-0.00007c-1.29224-0.01093-2.29014-1.36028-2.33196-1.4177
		c-0.04681-0.06421-0.03268-0.15417,0.03152-0.20101c0.06413-0.04688,0.15413-0.03279,0.20108,0.03142
		c0.00942,0.0129,0.95597,1.29045,2.1028,1.29942c0.00397,0.00003,0.00805,0.00007,0.01202,0.00007
		c0.58406,0,1.13133-0.33283,1.62704-0.9895l0.14226-0.18847l0.10233,0.21282c0.00358,0.00735,0.37289,0.75521,0.98812,0.79369
		c0.49614,0.03121,1.05202-0.41092,1.61513-1.27756c0.04323-0.0666,0.13235-0.08564,0.19912-0.04228
		c0.06663,0.04333,0.08561,0.13249,0.04224,0.19915c-0.63249,0.97347-1.26427,1.44673-1.8761,1.4079
		c-0.56284-0.03605-0.94149-0.49455-1.11675-0.76371C35.35719,22.26271,34.7784,22.57726,34.15347,22.57726z"/>
</g>
<path fill="#111111" d="M41.05413,29.21509l-3.11973,1.30335l1.14471-5.61142l-7.46866,9.72005l3.11973-1.30335l-1.14471,5.61142
	L41.05413,29.21509z M33.69814,33.02157l4.11329-5.385l-0.80314,4.0021l1.95816-0.81808l-4.11329,5.385l0.80314-4.00209
	L33.69814,33.02157z"/>
<path fill="#F06351" d="M45.67765,18.91606c0,0-2.54298,2.244-5.06197,5.18925c-2.51899,2.94525-5.28988,4.87368-5.28988,4.87368
	c-0.21591-0.52594-1.61935-1.50769-1.61935-1.50769s-3.13074-2.13881-5.18192-3.82181
	c-1.17897-0.96735-2.34523-2.16562-3.12459-3.01041c-0.29189-0.01563-1.06506-0.05718-2.00522-0.10887
	c4.69036,6.96732,11.96707,8.7994,11.96707,8.7994c0.86366-0.14025,3.27468-1.85831,5.07396-3.26081s4.75009-4.52306,5.93761-5.8905
	c0.60077-0.6918,0.9434-1.41917,1.13557-1.96938C46.40004,18.59122,45.67765,18.91606,45.67765,18.91606z"/>
<path fill="#F06351" d="M25.81363,25.69996c0,0-3.79047-1.43942-5.18192-1.82327c-1.39144-0.38385-2.25509-0.67173-4.03038,0.62375
	c-1.77528,1.29548-1.72731,3.83846-1.72731,3.83846s0.43183,0.95961,0.47981,1.43942
	c0.04798,0.4798-1.19952,0.43183-2.01519,0.43183s-0.91164-1.43942-0.28788-3.11875
	c0.62375-1.67933,1.91923-3.69452,1.91923-3.69452C9.54816,26.22775,0,32.75313,0,32.75313s2.92683-0.28789,8.15672,0.2399
	c5.2299,0.52779,4.94202,4.65413,4.94202,4.65413s3.50259-0.95961,5.61375-1.10355c2.11115-0.14394,2.25509,2.11115,2.25509,2.11115
	l0.52779,3.83846c0,0,0.47981-0.62375,2.63894-2.35106c1.85356-1.48285,3.86872-1.35586,4.36625-1.29548l0,0L25.81363,25.69996z"/>
<g>
	<path fill="#111111" d="M89.55839,37.1207c-0.66235-0.85257-0.9938-2.08214-0.9938-3.68987v-5.33678
		c0-1.64404,0.32858-2.88629,0.98458-3.72676c0.65658-0.84047,1.78239-1.2607,3.37743-1.2607
		c1.52126,0,2.59749,0.37123,3.22986,1.11313c0.63179,0.74247,0.94769,1.80717,0.94769,3.19354v1.2509h-2.94451v-1.38002
		c0-0.44156-0.02191-0.79723-0.06457-1.06759c-0.04323-0.26978-0.15334-0.49344-0.33146-0.67157
		c-0.17754-0.17755-0.45078-0.2669-0.81856-0.2669c-0.55224,0-0.90849,0.17812-1.06759,0.53379
		c-0.15968,0.35625-0.23923,0.87736-0.23923,1.56449v6.77215c0,0.69981,0.09223,1.22092,0.27612,1.56449
		c0.18388,0.34356,0.52745,0.51535,1.03069,0.51535c0.51534,0,0.84623-0.17466,0.9938-0.52457
		c0.147-0.34991,0.22079-0.86756,0.22079-1.55527v-1.45381h2.94451v1.23303c0,1.42326-0.31301,2.52486-0.93846,3.30364
		c-0.62603,0.77936-1.70572,1.16846-3.23908,1.16846C91.34366,38.39985,90.22131,37.97385,89.55839,37.1207z"/>
	<path fill="#111111" d="M101.11623,23.29049h3.36762l2.87131,14.90703h-2.79752l-0.55225-3.27597h-2.35538l-0.57069,3.27597
		h-2.85286L101.11623,23.29049z M103.71084,33.04462l-0.90157-5.9997l-0.88312,5.9997H103.71084z"/>
	<path fill="#111111" d="M109.50821,25.53577h-2.30062v-2.24528h7.61896v2.24528h-2.26373v12.66175h-3.05461V25.53577z"/>
	<path fill="#444444" d="M120.8078,23.29049h5.77835v1.54604h-3.69966v4.93212h2.99985v1.47226h-2.99985v5.46591h3.73655v1.4907
		h-5.81524V23.29049z"/>
	<path fill="#444444" d="M128.2982,23.29049h1.41693l4.2323,9.90112v-9.90112h1.7305v14.90703h-1.32584l-4.28764-10.17725v10.17725
		h-1.76625V23.29049z"/>
	<path fill="#444444" d="M138.01488,23.29049h5.77834v1.54604h-3.69966v4.93212h2.99985v1.47226h-2.99985v5.46591h3.73656v1.4907
		h-5.81523V23.29049z"/>
	<path fill="#444444" d="M145.50528,23.29049h2.99985c1.50916,0,2.61594,0.31013,3.32152,0.92924
		c0.70557,0.61968,1.05836,1.62905,1.05836,3.02752c0,1.91382-0.61334,3.07364-1.84119,3.47831l2.11673,7.47196h-2.00606
		l-1.95071-6.99351h-1.61983v6.99351h-2.07867V23.29049z M148.37601,29.71331c0.8958,0,1.53682-0.17755,1.92303-0.53379
		c0.38623-0.35567,0.57991-0.99957,0.57991-1.93226c0-0.61334-0.06802-1.09468-0.20291-1.44459
		c-0.13489-0.34991-0.37469-0.60758-0.7171-0.77302c-0.34357-0.16544-0.82893-0.24845-1.45381-0.24845h-0.92117v4.93212H148.37601z"
		/>
	<path fill="#444444" d="M155.68195,37.10226c-0.60066-0.85257-0.90157-2.11903-0.90157-3.79996v-4.98746
		c0-1.1529,0.1199-2.10116,0.35855-2.84363c0.23981-0.74189,0.65024-1.31258,1.2336-1.71148
		c0.58221-0.39833,1.38348-0.59778,2.4015-0.59778c1.37425,0,2.36459,0.34933,2.97218,1.04856
		c0.60757,0.69981,0.91078,1.79795,0.91078,3.29442v0.55224h-1.9507v-0.46001c0-0.71134-0.04266-1.2607-0.12798-1.6475
		c-0.08647-0.38622-0.26747-0.67733-0.54301-0.8739c-0.2767-0.19599-0.68483-0.29457-1.22438-0.29457
		c-0.57646,0-1.00648,0.13201-1.2878,0.39602c-0.28247,0.26344-0.46347,0.61623-0.54301,1.05779
		c-0.0807,0.44156-0.1199,1.03069-0.1199,1.76682v5.52125c0,1.1408,0.13835,1.95993,0.41389,2.45683
		c0.27669,0.4969,0.80702,0.74535,1.59215,0.74535c0.77245,0,1.30394-0.26978,1.59216-0.80991
		c0.28822-0.53956,0.43234-1.40481,0.43234-2.5946v-1.0307h-1.89537v-1.47225h3.77229v7.37973h-1.30624l-0.20291-1.71149
		c-0.46577,1.26358-1.35005,1.89537-2.65051,1.89537C157.25911,38.3814,156.28377,37.95541,155.68195,37.10226z"/>
	<path fill="#444444" d="M167.07378,32.93394l-3.22006-9.64345h1.93227l2.2816,7.19584l2.24585-7.19584h1.95071l-3.20277,9.64345
		v5.26358h-1.98759V32.93394z"/>
</g>
</svg>
