<?xml version="1.0" encoding="utf-8"?>
<!-- Generator: Adobe Illustrator 22.0.1, SVG Export Plug-In . SVG Version: 6.00 Build 0)  -->
<svg version="1.1" id="Layer_2" xmlns="http://www.w3.org/2000/svg" xmlns:xlink="http://www.w3.org/1999/xlink" x="0px" y="0px"
	 viewBox="0 0 33.32028 37.61382" enable-background="new 0 0 33.32028 37.61382" xml:space="preserve">
<g>
	<path fill="#FDC305" d="M6.07074,20.7235l0.05316-2.26581c6.66618-0.90871,13.43656-1.36872,20.16468-1.3307
		c-0.01036,0.60526-0.02906,1.21295-0.05784,1.82051c0,0,2.92273-1.34871,6.03583-1.81347
		c-2.36702-6.32298-8.46389-10.82466-15.61299-10.82466c-8.32337,0-15.22114,6.10152-16.4659,14.07566
		C2.35965,20.52054,6.07074,20.7235,6.07074,20.7235z"/>
	<path fill="#FDC305" d="M27.23874,24.2275c-1.16004,1.28433-1.392,1.2-1.392,3.456c0,0.90848,0.02761,4.89768,0.0351,9.17227
		c4.48371-2.98708,7.43844-8.08801,7.43844-13.87969c0-1.05173-0.09849-2.08034-0.28479-3.07803
		C31.22202,20.96195,28.22414,23.13652,27.23874,24.2275z"/>
	<path fill="#FDC305" d="M6.35874,25.7155c0,0-3.792-1.44-5.184-1.824C0.74725,23.77357,0.3696,23.66493,0,23.6082
		c0.22567,6.04861,3.67351,11.27302,8.67817,14.00562L6.35874,25.7155z"/>
</g>
<path fill="#F06351" d="M26.29451,17.12177c0.14514-8.48023-1.40184-16.46749-1.40184-16.46749s-0.144-1.296-0.864-0.24
	c-0.72,1.056-1.2,3.936-1.2,3.936c-7.44-0.432-12.768,0.336-12.768,0.336c-0.816-2.736-2.208-3.936-2.88-3.648
	c-0.672,0.288-0.72,3.312-0.72,3.312l-0.33085,14.1022C12.79601,17.54377,19.56638,17.08375,26.29451,17.12177z"/>
<path d="M12.41267,13.99828c-0.04554-0.09107,1.02216,0.68072,1.40616,0.92072c0.384,0.24,0.60984,0.42328,0.60984,0.59128
	c0,0.168-0.264,0.336-0.624,0.336s-0.912-0.12-0.96-0.264c0,0,0.6-0.024,0.936-0.024h0.288
	C14.06867,15.55828,12.67667,14.52628,12.41267,13.99828z"/>
<path d="M19.88567,14.11153c0,0-1.04715,1.27434-1.08613,1.33282c-0.03899,0.05848-0.1657,0.34114,0.18519,0.29241
	s1.11116-0.22418,1.21837-0.28266c0.10722-0.05848,0.06943-0.19567-0.11696-0.17545
	c-0.20456,0.02219-0.68229,0.04873-0.98445,0.10722l0.84101-1.26081C19.9427,14.12507,19.96909,14.00664,19.88567,14.11153z"/>
<path d="M16.75367,20.20228c0,0,0.81-0.351,1.089-1.008c0.279-0.657,0.036-0.91207-0.441-0.97803
	c-0.477-0.06597-1.341-0.02997-1.737,0.33904c-0.396,0.369-0.342,0.729-0.054,0.954
	C15.89867,19.73428,16.45667,20.11228,16.75367,20.20228z"/>
<path fill="#F06351" d="M16.34867,21.45328c0,0-0.17956,0.3719-0.45842,0.594c-0.24318,0.19368-0.56692,0.36366-1.0176,0.38674
	c-0.63799,0.03267-1.05545-0.16928-1.45145-0.44528c-0.20289-0.14141-0.39521-0.25454-0.53256-0.44178
	c-0.15703-0.18191-0.35597-0.25268-0.35597-0.25268s0.74755,4.0988,2.56555,4.7468c1.818,0.648,2.14357-0.74931,2.20049-1.13296
	c0.04834-0.32584,0-2.08202-0.82017-3.22335C16.46394,21.38143,16.44786,21.58463,16.34867,21.45328z"/>
<g>
	<path d="M14.70786,22.58633c-0.00524,0-0.01051-0.00003-0.01579-0.00007c-1.29277-0.01093-2.29106-1.36083-2.3329-1.41827
		c-0.04683-0.06423-0.0327-0.15423,0.03154-0.20109c0.06416-0.0469,0.15419-0.0328,0.20116,0.03143
		c0.00942,0.0129,0.95636,1.29097,2.10365,1.29994c0.00397,0.00004,0.00805,0.00007,0.01202,0.00007
		c0.5843,0,1.13179-0.33296,1.6277-0.98989l0.14231-0.18854l0.10238,0.21291c0.00359,0.00735,0.37304,0.75551,0.98852,0.794
		c0.49634,0.03122,1.05244-0.41108,1.61578-1.27807c0.04324-0.06662,0.1324-0.08568,0.19919-0.04229
		c0.06666,0.04335,0.08564,0.13254,0.04226,0.19923c-0.63274,0.97386-1.26478,1.44731-1.87685,1.40846
		c-0.56306-0.03607-0.94187-0.49475-1.1172-0.76402C15.91207,22.27165,15.33304,22.58633,14.70786,22.58633z"/>
</g>
<path fill="#F06351" d="M26.23667,18.92366c0,0-2.544,2.2449-5.064,5.19133s-5.292,4.87564-5.292,4.87564
	c-0.216-0.52615-1.62-1.50829-1.62-1.50829s-3.132-2.13967-5.184-3.82334c-1.17944-0.96774-2.34617-2.16649-3.12585-3.01162
	c-0.29201-0.01564-1.06549-0.0572-2.00603-0.10892c4.69224,6.97012,11.97188,8.80294,11.97188,8.80294
	c0.864-0.14031,3.276-1.85906,5.076-3.26212c1.8-1.40306,4.752-4.52488,5.94-5.89286
	c0.60102-0.69207,0.94378-1.41973,1.13603-1.97017C26.95935,18.59868,26.23667,18.92366,26.23667,18.92366z"/>
</svg>
