<?xml version="1.0" encoding="utf-8"?>
<!-- Generator: Adobe Illustrator 22.0.1, SVG Export Plug-In . SVG Version: 6.00 Build 0)  -->
<svg version="1.1" id="Layer_1" xmlns="http://www.w3.org/2000/svg" xmlns:xlink="http://www.w3.org/1999/xlink" x="0px" y="0px"
	 viewBox="0 0 100.50072 18.08578" enable-background="new 0 0 100.50072 18.08578" xml:space="preserve">
<g>
	<path fill="#111111" d="M1.22372,16.57652C0.40809,15.57141,0,14.12016,0,12.22383V5.8841
		c0-1.93957,0.40434-3.40453,1.21301-4.39699C2.02115,0.49676,3.40286,0,5.35815,0c1.86638,0,3.18972,0.44191,3.96894,1.32469
		c0.77868,0.88277,1.16856,2.13469,1.16856,3.75574v1.5198H6.63703V4.84207c0-0.68027-0.07391-1.20129-0.22065-1.56305
		C6.26911,2.91727,5.91672,2.73586,5.35815,2.73586S4.43219,2.92781,4.25546,3.31172C4.07926,3.69457,3.9909,4.22719,3.9909,4.90746
		v8.27191c0,0.69398,0.09158,1.2266,0.27581,1.59574c0.18369,0.36914,0.54733,0.55371,1.09144,0.55371
		c0.54358,0,0.89276-0.18457,1.04753-0.55371c0.15424-0.36914,0.23136-0.90176,0.23136-1.59574v-1.8457h3.85861v1.5198
		c0,1.64953-0.38988,2.93414-1.16856,3.85383c-0.77922,0.91969-2.10256,1.37848-3.96894,1.37848
		C3.41786,18.08578,2.0399,17.5827,1.22372,16.57652z"/>
	<path fill="#111111" d="M15.19668,0.23941h4.49645l3.3311,17.58586h-3.63958l-0.59553-3.7125h-2.62204l-0.61909,3.7125h-3.72526
		L15.19668,0.23941z M18.41424,11.7893L17.4674,4.92855l-0.94899,6.86074H18.41424z"/>
	<path fill="#111111" d="M25.75124,3.12715h-2.69059V0.23941h9.32709v2.88773h-2.66809v14.69812h-3.9684V3.12715z"/>
	<path fill="#111111" d="M39.53193,0.23941h6.92355v1.82355h-4.43219v5.81871h3.59352v1.73707h-3.59352v6.44836h4.4761v1.75816
		h-6.96746V0.23941z"/>
	<path fill="#111111" d="M48.48841,0.23941h1.69768l5.07163,11.68066V0.23941h2.07257v17.58586h-1.58736L50.6049,5.81871v12.00656
		h-2.11648V0.23941z"/>
	<path fill="#111111" d="M59.81202,0.23941h6.92355v1.82355h-4.43218v5.81871h3.59352v1.73707h-3.59352v6.44836h4.4761v1.75816
		h-6.96746V0.23941z"/>
	<path fill="#111111" d="M68.7685,0.23941h3.59352c1.80801,0,3.13509,0.36492,3.98019,1.09582s1.26817,1.92164,1.26817,3.57223
		c0,2.25809-0.73584,3.62496-2.20538,4.10273l2.53528,8.81508h-2.40246l-2.33713-8.25082h-1.94083v8.25082H68.7685V0.23941z
		 M72.20779,7.81629c1.07323,0,1.84121-0.20988,2.30392-0.62965c0.46378-0.41977,0.69514-1.17914,0.69514-2.27918
		c0-0.72352-0.08141-1.29199-0.24314-1.70438s-0.44772-0.71719-0.85902-0.9123c-0.41237-0.19512-0.9929-0.2932-1.74267-0.2932
		h-1.10216v5.81871H72.20779z"/>
	<path fill="#111111" d="M80.81188,16.53328c-0.72085-1.00617-1.08073-2.49961-1.08073-4.48348V6.16676
		c0-1.36055,0.14352-2.47852,0.43058-3.35496c0.28598-0.87539,0.77869-1.54828,1.47704-2.01867
		c0.69728-0.47039,1.65698-0.70559,2.87696-0.70559c1.64627,0,2.83305,0.41238,3.56139,1.23715
		c0.72727,0.82477,1.09145,2.12098,1.09145,3.88652v0.65074h-2.33713V5.31984c0-0.83953-0.05248-1.48711-0.15424-1.94379
		c-0.1039-0.45563-0.32026-0.79945-0.65123-1.03043c-0.33096-0.23203-0.81938-0.34805-1.46632-0.34805
		c-0.69086,0-1.20498,0.15609-1.54345,0.46723c-0.33846,0.31113-0.55482,0.72668-0.65015,1.2477
		c-0.09532,0.52102-0.14352,1.21605-0.14352,2.08512v6.5127c0,1.34684,0.16602,2.31293,0.49592,2.89828
		c0.33096,0.58641,0.96719,0.87961,1.90762,0.87961c0.9265,0,1.56165-0.31852,1.90762-0.95555
		c0.34489-0.63598,0.51841-1.65691,0.51841-3.0607V10.8559h-2.27179V9.11883h4.52002v8.70645h-1.56487l-0.24313-2.01867
		c-0.55911,1.49027-1.61736,2.23594-3.17472,2.23594C82.70022,18.04254,81.53165,17.53945,80.81188,16.53328z"/>
	<path fill="#111111" d="M94.28196,11.61633L90.42387,0.23941h2.3157l2.73344,8.48918l2.69058-8.48918h2.33713l-3.83665,11.37691
		v6.20895h-2.38211V11.61633z"/>
</g>
</svg>
